<mxfile host="65bd71144e">
    <diagram id="F2gl8E2Mv4HkHhDspFIS" name="削除ロバストネス図">
        <mxGraphModel dx="955" dy="407" grid="1" gridSize="10" guides="1" tooltips="1" connect="1" arrows="1" fold="1" page="1" pageScale="1" pageWidth="827" pageHeight="1169" math="0" shadow="0">
            <root>
                <mxCell id="0"/>
                <mxCell id="1" parent="0"/>
                <mxCell id="18" value="訪問者" style="shape=umlActor;" vertex="1" parent="1">
                    <mxGeometry x="40" y="200" width="40" height="80" as="geometry"/>
                </mxCell>
                <mxCell id="24" style="entryX=0.288;entryY=0.913;entryDx=0;entryDy=0;entryPerimeter=0;" edge="1" parent="1" source="18" target="29">
                    <mxGeometry relative="1" as="geometry">
                        <mxPoint x="183.63636363636374" y="160" as="targetPoint"/>
                    </mxGeometry>
                </mxCell>
                <mxCell id="25" style="entryX=0.603;entryY=-0.004;entryDx=0;entryDy=0;entryPerimeter=0;" edge="1" parent="1" target="30">
                    <mxGeometry relative="1" as="geometry">
                        <mxPoint x="230" y="160" as="sourcePoint"/>
                        <mxPoint x="230" y="200" as="targetPoint"/>
                    </mxGeometry>
                </mxCell>
                <mxCell id="26" style="exitX=0.99;exitY=0.451;exitDx=0;exitDy=0;exitPerimeter=0;entryX=0.014;entryY=0.554;entryDx=0;entryDy=0;entryPerimeter=0;" edge="1" parent="1" source="30" target="32">
                    <mxGeometry relative="1" as="geometry">
                        <mxPoint x="300" y="230" as="sourcePoint"/>
                        <mxPoint x="360" y="232.1560283687944" as="targetPoint"/>
                    </mxGeometry>
                </mxCell>
                <mxCell id="27" style="exitX=0.981;exitY=0.521;exitDx=0;exitDy=0;exitPerimeter=0;entryX=0;entryY=0.5;entryDx=0;entryDy=0;" edge="1" parent="1" source="32" target="33">
                    <mxGeometry relative="1" as="geometry">
                        <mxPoint x="460" y="230" as="sourcePoint"/>
                        <mxPoint x="520" y="230.6866672116406" as="targetPoint"/>
                    </mxGeometry>
                </mxCell>
                <mxCell id="28" style="entryX=0.588;entryY=-0.026;entryDx=0;entryDy=0;entryPerimeter=0;" edge="1" parent="1" target="31">
                    <mxGeometry relative="1" as="geometry">
                        <mxPoint x="410.27297543221107" y="260" as="sourcePoint"/>
                        <mxPoint x="425" y="320" as="targetPoint"/>
                    </mxGeometry>
                </mxCell>
                <mxCell id="29" value="システムメニュー" style="shape=umlBoundary;whiteSpace=wrap;html=1;fillColor=#d5e8d4;strokeColor=#82b366;" vertex="1" parent="1">
                    <mxGeometry x="170" y="84" width="100" height="80" as="geometry"/>
                </mxCell>
                <mxCell id="30" value="削除確認画面" style="shape=umlBoundary;whiteSpace=wrap;html=1;fillColor=#d5e8d4;strokeColor=#82b366;" vertex="1" parent="1">
                    <mxGeometry x="170" y="200" width="100" height="80" as="geometry"/>
                </mxCell>
                <mxCell id="31" value="結果表示" style="shape=umlBoundary;whiteSpace=wrap;html=1;fillColor=#d5e8d4;strokeColor=#82b366;" vertex="1" parent="1">
                    <mxGeometry x="352" y="320" width="100" height="80" as="geometry"/>
                </mxCell>
                <mxCell id="32" value="削除処理" style="ellipse;shape=umlControl;whiteSpace=wrap;html=1;fillColor=#f8cecc;strokeColor=#b85450;" vertex="1" parent="1">
                    <mxGeometry x="379" y="190" width="70" height="80" as="geometry"/>
                </mxCell>
                <mxCell id="33" value="WebVisitor" style="ellipse;shape=umlEntity;whiteSpace=wrap;html=1;fillColor=#dae8fc;strokeColor=#6c8ebf;" vertex="1" parent="1">
                    <mxGeometry x="520" y="190" width="80" height="80" as="geometry"/>
                </mxCell>
            </root>
        </mxGraphModel>
    </diagram>
</mxfile>